<?xml version="1.0" standalone="no"?>
<!DOCTYPE svg PUBLIC "-//W3C//DTD SVG 20010904//EN"
 "http://www.w3.org/TR/2001/REC-SVG-20010904/DTD/svg10.dtd">
<svg version="1.0" xmlns="http://www.w3.org/2000/svg"
 width="501.000000pt" height="501.000000pt" viewBox="0 0 501.000000 501.000000"
 preserveAspectRatio="xMidYMid meet">
<metadata>
Created by potrace 1.14, written by Peter Selinger 2001-2017
</metadata>
<g transform="translate(0.000000,501.000000) scale(0.100000,-0.100000)"
fill="#000000" stroke="none">
<path d="M2345 4833 c-52 -5 -243 -32 -275 -39 -14 -3 -35 -7 -47 -10 -12 -2
-33 -8 -45 -13 -13 -5 -27 -9 -33 -10 -95 -14 -314 -98 -475 -182 -540 -282
-944 -756 -1134 -1331 -35 -103 -80 -293 -91 -378 -3 -25 -10 -76 -15 -115
-14 -108 -5 -463 15 -580 24 -144 51 -255 91 -380 38 -116 49 -142 122 -295
38 -82 164 -295 182 -310 3 -3 24 -30 45 -60 236 -327 635 -626 1034 -775 137
-51 354 -110 446 -120 33 -4 62 -9 65 -10 14 -8 199 -19 325 -18 147 0 295 12
355 28 8 2 35 7 60 10 72 10 267 64 370 102 198 72 478 228 625 348 101 82
122 101 230 210 174 175 317 376 428 603 100 203 148 351 203 616 4 24 13 95
24 201 8 77 5 409 -4 451 -2 11 -7 47 -10 79 -4 32 -8 61 -10 64 -2 3 -7 22
-10 41 -53 318 -218 687 -435 970 -180 235 -427 453 -676 598 -158 91 -520
235 -645 256 -19 3 -44 7 -55 9 -65 13 -159 28 -220 36 -69 8 -366 11 -440 4z
m410 -83 c94 -10 112 -12 175 -25 14 -2 36 -6 50 -9 155 -26 363 -97 545 -186
696 -341 1170 -1023 1242 -1785 14 -145 6 -526 -12 -554 -2 -4 -6 -27 -10 -51
-11 -74 -44 -210 -72 -295 -213 -654 -686 -1158 -1323 -1408 -104 -41 -297
-98 -375 -111 -16 -3 -47 -8 -69 -11 -21 -4 -48 -8 -60 -11 -91 -17 -372 -23
-511 -11 -158 15 -406 67 -523 111 -138 53 -189 75 -287 124 -155 78 -314 183
-434 286 -38 33 -223 217 -258 257 -156 180 -309 442 -396 679 -37 100 -91
294 -102 370 -4 25 -9 54 -11 65 -26 125 -25 547 1 686 8 43 19 97 35 171 38
185 156 469 272 656 115 186 305 405 458 530 25 20 54 45 65 55 45 42 257 177
360 229 246 126 538 214 770 234 44 4 81 8 83 9 9 8 300 4 387 -5z"/>
<path d="M880 2900 l0 -760 125 0 126 0 -3 549 c-2 400 0 544 8 532 6 -9 30
-52 54 -96 24 -44 55 -102 70 -130 15 -27 45 -84 67 -125 22 -41 57 -105 77
-142 20 -38 51 -96 69 -130 19 -35 55 -103 81 -151 63 -117 100 -140 195 -121
41 8 65 35 111 120 85 159 115 214 168 314 30 58 69 132 87 165 18 33 60 113
95 178 34 64 65 117 68 117 4 0 6 -243 4 -540 l-3 -540 126 0 125 0 0 760 0
760 -129 0 c-150 0 -157 -3 -209 -100 -16 -30 -100 -188 -188 -350 -87 -162
-191 -360 -231 -440 -40 -80 -73 -138 -73 -129 0 16 -89 196 -157 319 -30 54
-65 120 -265 489 -55 102 -107 190 -116 197 -11 8 -63 13 -149 13 l-133 2 0
-761z"/>
<path d="M3002 2641 c-5 -3 -9 -340 -8 -761 l1 -755 315 1 c173 0 346 4 384 8
173 19 328 95 449 220 254 261 269 742 32 1028 -106 129 -247 210 -436 249
-56 12 -721 20 -737 10z m707 -234 c60 -15 155 -70 200 -115 70 -70 117 -173
137 -297 6 -41 6 -194 -1 -225 -3 -14 -8 -38 -10 -53 -8 -43 -50 -142 -76
-179 -64 -91 -174 -159 -284 -177 -74 -11 -395 -15 -396 -4 0 11 0 1046 0
1057 1 9 391 2 430 -7z"/>
</g>
</svg>
